<svg xmlns="http://www.w3.org/2000/svg" width="1052" height="351" fill="none" viewBox="0 0 1052 351"><path fill="#fff" d="M157.113 0.639993C178.26 0.639993 196.287 8.09333 211.193 23C226.1 37.7333 233.553 55.6733 233.553 76.82C233.553 97.7933 226.1 115.733 211.193 130.64C196.287 145.547 178.26 153 157.113 153H0.333191V0.639993H157.113ZM125.913 108.28C134.753 108.28 142.12 105.247 148.013 99.18C154.08 92.94 157.113 85.4867 157.113 76.82C157.113 68.1533 154.08 60.7867 148.013 54.72C141.947 48.48 134.58 45.36 125.913 45.36H72.0932V108.28H125.913ZM424.407 105.16C433.074 107.24 441.221 108.28 448.847 108.28H484.727V153H421.547C400.921 153 368.161 139.827 323.267 113.48V153H251.507V0.639993H395.027C419.814 0.639993 440.961 5.92666 458.467 16.5C475.974 26.9 484.727 39.5533 484.727 54.46C484.727 66.0733 479.094 76.56 467.827 85.92C456.734 95.1067 442.261 101.52 424.407 105.16ZM323.267 36.52V72.4H377.087C382.634 72.4 388.614 71.62 395.027 70.06C406.987 67.1133 412.967 61.9133 412.967 54.46C412.967 48.5667 408.894 43.8867 400.747 40.42C394.334 37.82 387.574 36.52 380.467 36.52H323.267ZM577.489 153H505.729V0.639993H577.489V153ZM760.433 0.639993H832.193V153H760.433C741.886 122.493 711.986 97.7067 670.733 78.64V153H598.973V0.639993C623.933 1.50666 646.38 4.10666 666.313 8.43999C713.98 18.84 745.353 37.1267 760.433 63.3V0.639993ZM1007.1 108.28H1051.04V153H1007.1C973.995 153 946.782 143.987 925.462 125.96V153H853.702V0.639993H925.462V30.28L957.702 0.639993H1050.78L962.122 81.5C963.855 89.1267 968.969 95.54 977.462 100.74C985.955 105.767 995.835 108.28 1007.1 108.28ZM289.237 243.36H163.657V261.3H226.577V288.34H163.657V351H91.8969V198.64H289.237V243.36ZM468.745 303.16C477.411 305.24 485.558 306.28 493.185 306.28H529.065V351H465.885C445.258 351 412.498 337.827 367.605 311.48V351H295.845V198.64H439.365C464.151 198.64 485.298 203.927 502.805 214.5C520.311 224.9 529.065 237.553 529.065 252.46C529.065 264.073 523.431 274.56 512.165 283.92C501.071 293.107 486.598 299.52 468.745 303.16ZM367.605 234.52V270.4H421.425C426.971 270.4 432.951 269.62 439.365 268.06C451.325 265.113 457.305 259.913 457.305 252.46C457.305 246.567 453.231 241.887 445.085 238.42C438.671 235.82 431.911 234.52 424.805 234.52H367.605ZM747.406 243.36H621.826V261.3H684.746V288.34H621.826V306.28H747.406V351H550.066V198.64H747.406V243.36ZM959.224 243.36H833.644V261.3H896.564V288.34H833.644V306.28H959.224V351H761.884V198.64H959.224V243.36Z"/></svg>